<svg xmlns="http://www.w3.org/2000/svg" viewBox="0 0 48 48" fill="none" aria-hidden="true">
  <!-- Chip body -->
  <rect x="8" y="10" width="32" height="28" rx="3" stroke="currentColor" stroke-width="1.8" fill="none"/>
  <!-- Notch (top center, DIP-style) -->
  <rect x="21" y="8" width="6" height="2" rx="1" fill="currentColor" opacity="0.35"/>
  <!-- Pins left -->
  <rect x="4" y="14" width="4" height="1.8" rx="0.9" fill="currentColor"/>
  <rect x="4" y="19" width="4" height="1.8" rx="0.9" fill="currentColor"/>
  <rect x="4" y="24" width="4" height="1.8" rx="0.9" fill="currentColor"/>
  <rect x="4" y="29" width="4" height="1.8" rx="0.9" fill="currentColor"/>
  <!-- Pins right -->
  <rect x="40" y="14" width="4" height="1.8" rx="0.9" fill="currentColor"/>
  <rect x="40" y="19" width="4" height="1.8" rx="0.9" fill="currentColor"/>
  <rect x="40" y="24" width="4" height="1.8" rx="0.9" fill="currentColor"/>
  <rect x="40" y="29" width="4" height="1.8" rx="0.9" fill="currentColor"/>
  <!-- Pins top -->
  <rect x="16" y="4" width="1.8" height="4" rx="0.9" fill="currentColor"/>
  <rect x="30" y="4" width="1.8" height="4" rx="0.9" fill="currentColor"/>
  <!-- Pins bottom -->
  <rect x="16" y="40" width="1.8" height="4" rx="0.9" fill="currentColor"/>
  <rect x="30" y="40" width="1.8" height="4" rx="0.9" fill="currentColor"/>
  <!-- Circuit traces (base) -->
  <path d="M12 18h6M30 18h6M12 30h6M30 30h6M18 14v6M18 28v6M30 14v6M30 28v6" stroke="currentColor" stroke-width="1.2" stroke-linecap="round" opacity="0.7"/>
  <!-- Circuit traces (accent - signal path) -->
  <path d="M18 20h12M24 14v12" stroke="var(--logo-accent, #b45309)" stroke-width="1.5" stroke-linecap="round" class="logo-accent"/>
  <!-- Connection nodes (base) -->
  <circle cx="12" cy="18" r="1.2" fill="currentColor" opacity="0.8"/>
  <circle cx="18" cy="18" r="1.2" fill="currentColor" opacity="0.8"/>
  <circle cx="30" cy="18" r="1.2" fill="currentColor" opacity="0.8"/>
  <circle cx="36" cy="18" r="1.2" fill="currentColor" opacity="0.8"/>
  <circle cx="18" cy="14" r="1.2" fill="currentColor" opacity="0.8"/>
  <circle cx="18" cy="26" r="1.2" fill="currentColor" opacity="0.8"/>
  <circle cx="30" cy="14" r="1.2" fill="currentColor" opacity="0.8"/>
  <circle cx="30" cy="26" r="1.2" fill="currentColor" opacity="0.8"/>
  <circle cx="12" cy="30" r="1.2" fill="currentColor" opacity="0.8"/>
  <circle cx="18" cy="30" r="1.2" fill="currentColor" opacity="0.8"/>
  <circle cx="30" cy="30" r="1.2" fill="currentColor" opacity="0.8"/>
  <circle cx="36" cy="30" r="1.2" fill="currentColor" opacity="0.8"/>
  <!-- Connection nodes (accent) -->
  <circle cx="24" cy="20" r="1.5" fill="var(--logo-accent, #b45309)" class="logo-accent"/>
  <circle cx="24" cy="14" r="1.2" fill="var(--logo-accent, #b45309)" class="logo-accent"/>
  <circle cx="24" cy="26" r="1.2" fill="var(--logo-accent, #b45309)" class="logo-accent"/>
</svg>
