<svg xmlns="http://www.w3.org/2000/svg" viewBox="0 0 48 48" fill="none" aria-hidden="true">
  <!-- Chip body -->
  <rect x="8" y="12" width="32" height="24" rx="3" stroke="currentColor" stroke-width="2" fill="none"/>
  <!-- Pins left -->
  <rect x="4" y="16" width="4" height="2" rx="1" fill="currentColor"/>
  <rect x="4" y="22" width="4" height="2" rx="1" fill="currentColor"/>
  <rect x="4" y="28" width="4" height="2" rx="1" fill="currentColor"/>
  <!-- Pins right -->
  <rect x="40" y="16" width="4" height="2" rx="1" fill="currentColor"/>
  <rect x="40" y="22" width="4" height="2" rx="1" fill="currentColor"/>
  <rect x="40" y="28" width="4" height="2" rx="1" fill="currentColor"/>
  <!-- Circuit trace (accent) -->
  <path d="M14 24h8M26 24h8M20 20v8M28 20v8" stroke="currentColor" stroke-width="1.5" stroke-linecap="round"/>
  <!-- Connection nodes -->
  <circle cx="14" cy="24" r="1.5" fill="currentColor"/>
  <circle cx="22" cy="24" r="1.5" fill="currentColor"/>
  <circle cx="26" cy="24" r="1.5" fill="currentColor"/>
  <circle cx="34" cy="24" r="1.5" fill="currentColor"/>
  <circle cx="22" cy="20" r="1.5" fill="currentColor"/>
  <circle cx="22" cy="28" r="1.5" fill="currentColor"/>
  <circle cx="28" cy="20" r="1.5" fill="currentColor"/>
  <circle cx="28" cy="28" r="1.5" fill="currentColor"/>
</svg>
